<svg xmlns="http://www.w3.org/2000/svg" width="301" height="285" fill="none" viewBox="0 0 301 285"><path fill="url(#paint0_linear_828_57)" d="M99.5667 283.477L2.17281 284.095C34.5053 163.275 75.0763 140.9 171.706 153.795C135.254 192.794 120.506 218.172 99.5667 283.477Z"/><path fill="#f4b400" d="M203.089 283.382L300.277 282.634C265.169 161.42 210.572 145.659 124.535 150.63C161.584 189.063 181.146 218.407 203.089 283.382Z"/><path fill="url(#paint1_linear_828_57)" d="M200.711 1.45242L298.105 0.834352C265.772 121.655 225.201 144.03 128.571 131.135C165.023 92.1358 179.772 66.7582 200.711 1.45242Z"/><path fill="#4286f5" d="M97.1896 1.5472L0.000976562 2.2959C35.1088 123.51 89.7059 139.271 175.743 134.3C138.695 95.8667 119.132 66.5226 97.1896 1.5472Z"/><defs><linearGradient id="paint0_linear_828_57" x1="11.4955" x2="209.828" y1="280.983" y2="231.188" gradientUnits="userSpaceOnUse"><stop offset="0.216446" stop-color="#0f9d58"/></linearGradient><linearGradient id="paint1_linear_828_57" x1="288.782" x2="90.4495" y1="3.94687" y2="53.7419" gradientUnits="userSpaceOnUse"><stop offset="0.0701212" stop-color="#db4437"/></linearGradient></defs></svg>